<svg version="1.1" xmlns="http://www.w3.org/2000/svg" xmlns:xlink="http://www.w3.org/1999/xlink" width="625.81640625" height="728"><defs/><g><g transform="translate(-54.82275390625,-10) scale(1,1)"><path fill="#C0C0C0" stroke="none" d="M 71.82275390625 36.5 C 71.82275390625 31.2532944 76.07604830625 27 81.32275390625 27 C 86.56945950625 27 90.82275390625 31.2532944 90.82275390625 36.5 C 90.82275390625 41.7467056 86.56945950625 46 81.32275390625 46 C 76.07604830625 46 71.82275390625 41.7467056 71.82275390625 36.5 Z" opacity="0.2"/></g><g transform="translate(-54.82275390625,-10) scale(1,1)"><path fill="#000000" stroke="none" d="M 64.82275390625 29.5 C 64.82275390625 24.2532944 69.07604830625 20 74.32275390625 20 C 79.56945950625 20 83.82275390625 24.2532944 83.82275390625 29.5 C 83.82275390625 34.7467056 79.56945950625 39 74.32275390625 39 C 69.07604830625 39 64.82275390625 34.7467056 64.82275390625 29.5 Z"/></g><g transform="translate(-54.82275390625,-10) scale(1,1)"><path fill="#C0C0C0" stroke="none" d="M 113 87 L 201.6455078125 87 Q 211.6455078125 87 211.6455078125 97 L 211.6455078125 126 Q 211.6455078125 136 201.6455078125 136 L 113 136 Q 103 136 103 126 L 103 97 Q 103 87 113 87 Z" opacity="0.2"/></g><g transform="translate(-54.82275390625,-10) scale(1,1)"><path fill="#ffffff" stroke="none" d="M 106 80 L 194.6455078125 80 Q 204.6455078125 80 204.6455078125 90 L 204.6455078125 119 Q 204.6455078125 129 194.6455078125 129 L 106 129 Q 96 129 96 119 L 96 90 Q 96 80 106 80 Z"/></g><g transform="translate(-54.82275390625,-10) scale(1,1)"><path fill="none" stroke="#000000" d="M 106 80 L 194.6455078125 80 Q 204.6455078125 80 204.6455078125 90 L 204.6455078125 119 Q 204.6455078125 129 194.6455078125 129 L 106 129 Q 96 129 96 119 L 96 90 Q 96 80 106 80 Z" stroke-miterlimit="10"/></g><g transform="translate(-54.82275390625,-10) scale(1,1)"><g><path fill="none" stroke="none"/><text fill="#000000" stroke="none" font-family="Arial" font-size="13px" font-style="normal" font-weight="bold" text-decoration="none" x="104.064208984375" y="99.5">Nhấp button tạo</text></g></g><g transform="translate(-54.82275390625,-10) scale(1,1)"><path fill="#C0C0C0" stroke="none" d="M 249 87 L 383.8818359375 87 Q 393.8818359375 87 393.8818359375 97 L 393.8818359375 126 Q 393.8818359375 136 383.8818359375 136 L 249 136 Q 239 136 239 126 L 239 97 Q 239 87 249 87 Z" opacity="0.2"/></g><g transform="translate(-54.82275390625,-10) scale(1,1)"><path fill="#ffffff" stroke="none" d="M 242 80 L 376.8818359375 80 Q 386.8818359375 80 386.8818359375 90 L 386.8818359375 119 Q 386.8818359375 129 376.8818359375 129 L 242 129 Q 232 129 232 119 L 232 90 Q 232 80 242 80 Z"/></g><g transform="translate(-54.82275390625,-10) scale(1,1)"><path fill="none" stroke="#000000" d="M 242 80 L 376.8818359375 80 Q 386.8818359375 80 386.8818359375 90 L 386.8818359375 119 Q 386.8818359375 129 376.8818359375 129 L 242 129 Q 232 129 232 119 L 232 90 Q 232 80 242 80 Z" stroke-miterlimit="10"/></g><g transform="translate(-54.82275390625,-10) scale(1,1)"><g><path fill="none" stroke="none"/><text fill="#000000" stroke="none" font-family="Arial" font-size="13px" font-style="normal" font-weight="bold" text-decoration="none" x="242.23828125" y="99.5">Điền thông tin vào form</text></g></g><g transform="translate(-54.82275390625,-10) scale(1,1)"><path fill="none" stroke="#000000" d="M 205 100 L 232 100" stroke-miterlimit="10"/></g><g transform="translate(-54.82275390625,-10) scale(1,1)"><path fill="none" stroke="#000000" d="M 221.83732514237585 104.20951775601598 L 232 100 L 221.83732514237585 95.79048224398402" stroke-miterlimit="10"/></g><g transform="translate(-54.82275390625,-10) scale(1,1)"><path fill="#C0C0C0" stroke="none" d="M 281 279 L 370.40087890625 279 Q 380.40087890625 279 380.40087890625 289 L 380.40087890625 318 Q 380.40087890625 328 370.40087890625 328 L 281 328 Q 271 328 271 318 L 271 289 Q 271 279 281 279 Z" opacity="0.2"/></g><g transform="translate(-54.82275390625,-10) scale(1,1)"><path fill="#ffffff" stroke="none" d="M 274 272 L 363.40087890625 272 Q 373.40087890625 272 373.40087890625 282 L 373.40087890625 311 Q 373.40087890625 321 363.40087890625 321 L 274 321 Q 264 321 264 311 L 264 282 Q 264 272 274 272 Z"/></g><g transform="translate(-54.82275390625,-10) scale(1,1)"><path fill="none" stroke="#000000" d="M 274 272 L 363.40087890625 272 Q 373.40087890625 272 373.40087890625 282 L 373.40087890625 311 Q 373.40087890625 321 363.40087890625 321 L 274 321 Q 264 321 264 311 L 264 282 Q 264 272 274 272 Z" stroke-miterlimit="10"/></g><g transform="translate(-54.82275390625,-10) scale(1,1)"><g><path fill="none" stroke="none"/><text fill="#000000" stroke="none" font-family="Arial" font-size="13px" font-style="normal" font-weight="bold" text-decoration="none" x="271.71826171875" y="291.5">Popup xác nhận</text></g></g><g transform="translate(-54.82275390625,-10) scale(1,1)"><path fill="#C0C0C0" stroke="none" d="M 441 175 L 555.63916015625 175 Q 565.63916015625 175 565.63916015625 185 L 565.63916015625 214 Q 565.63916015625 224 555.63916015625 224 L 441 224 Q 431 224 431 214 L 431 185 Q 431 175 441 175 Z" opacity="0.2"/></g><g transform="translate(-54.82275390625,-10) scale(1,1)"><path fill="#ffffff" stroke="none" d="M 434 168 L 548.63916015625 168 Q 558.63916015625 168 558.63916015625 178 L 558.63916015625 207 Q 558.63916015625 217 548.63916015625 217 L 434 217 Q 424 217 424 207 L 424 178 Q 424 168 434 168 Z"/></g><g transform="translate(-54.82275390625,-10) scale(1,1)"><path fill="none" stroke="#000000" d="M 434 168 L 548.63916015625 168 Q 558.63916015625 168 558.63916015625 178 L 558.63916015625 207 Q 558.63916015625 217 548.63916015625 217 L 434 217 Q 424 217 424 207 L 424 178 Q 424 168 434 168 Z" stroke-miterlimit="10"/></g><g transform="translate(-54.82275390625,-10) scale(1,1)"><g><path fill="none" stroke="none"/><text fill="#000000" stroke="none" font-family="Arial" font-size="13px" font-style="normal" font-weight="bold" text-decoration="none" x="433.492431640625" y="187.5">Popup thông báo lỗi</text></g></g><g transform="translate(-54.82275390625,-10) scale(1,1)"><path fill="#C0C0C0" stroke="none" d="M 511 307.5 C 511 300.59644 516.59644 295 523.5 295 C 530.40356 295 536 300.59644 536 307.5 C 536 314.40356 530.40356 320 523.5 320 C 516.59644 320 511 314.40356 511 307.5 Z" opacity="0.2"/></g><g transform="translate(-54.82275390625,-10) scale(1,1)"><path fill="none" stroke="#000000" d="M 504 300.5 C 504 293.59644 509.59644 288 516.5 288 C 523.40356 288 529 293.59644 529 300.5 C 529 307.40356 523.40356 313 516.5 313 C 509.59644 313 504 307.40356 504 300.5 Z" stroke-miterlimit="10"/></g><g transform="translate(-54.82275390625,-10) scale(1,1)"><path fill="#000000" stroke="none" d="M 509 300.5 C 509 296.357864 512.357864 293 516.5 293 C 520.642136 293 524 296.357864 524 300.5 C 524 304.642136 520.642136 308 516.5 308 C 512.357864 308 509 304.642136 509 300.5 Z"/></g><g transform="translate(-54.82275390625,-10) scale(1,1)"><path fill="none" stroke="#000000" d="M 373 300 L 504 300" stroke-miterlimit="10"/></g><g transform="translate(-54.82275390625,-10) scale(1,1)"><path fill="none" stroke="#000000" d="M 493.83732514237585 304.209517756016 L 504 300 L 493.83732514237585 295.790482243984" stroke-miterlimit="10"/></g><g transform="translate(-54.82275390625,-10) scale(1,1)"><path fill="none" stroke="#000000" d="M 74 39 L 74 100 L 96 100" stroke-miterlimit="10"/></g><g transform="translate(-54.82275390625,-10) scale(1,1)"><path fill="none" stroke="#000000" d="M 85.83732514237585 104.20951775601598 L 96 100 L 85.83732514237585 95.79048224398402" stroke-miterlimit="10"/></g><g transform="translate(-54.82275390625,-10) scale(1,1)"><path fill="#C0C0C0" stroke="none" d="M 303 192.5 L 314.5 183 L 325 192.5 L 314.5 201 L 303 192.5" opacity="0.2"/></g><g transform="translate(-54.82275390625,-10) scale(1,1)"><path fill="#ffffff" stroke="none" d="M 296 185 L 307 176 L 318 185 L 307 194 L 296 185"/></g><g transform="translate(-54.82275390625,-10) scale(1,1)"><path fill="none" stroke="#000000" d="M 296 185 L 307 176 L 318 185 L 307 194 L 296 185 L 296 185" stroke-miterlimit="10"/></g><g transform="translate(-54.82275390625,-10) scale(1,1)"><path fill="none" stroke="#000000" d="M 496 168 L 496 120 L 387 120" stroke-miterlimit="10"/></g><g transform="translate(-54.82275390625,-10) scale(1,1)"><path fill="none" stroke="#000000" d="M 397.16267485762415 115.79048224398402 L 387 120 L 397.16267485762415 124.20951775601598" stroke-miterlimit="10"/></g><g transform="translate(-54.82275390625,-10) scale(1,1)"><path fill="none" stroke="#000000" d="M 309 129 L 309 176" stroke-miterlimit="10"/></g><g transform="translate(-54.82275390625,-10) scale(1,1)"><path fill="none" stroke="#000000" d="M 304.790482243984 165.83732514237585 L 309 176 L 313.209517756016 165.83732514237585" stroke-miterlimit="10"/></g><g transform="translate(-54.82275390625,-10) scale(1,1)"><path fill="none" stroke="#000000" d="M 308 194 L 308 272" stroke-miterlimit="10"/></g><g transform="translate(-54.82275390625,-10) scale(1,1)"><path fill="none" stroke="#000000" d="M 303.790482243984 261.83732514237585 L 308 272 L 312.209517756016 261.83732514237585" stroke-miterlimit="10"/></g><g transform="translate(-54.82275390625,-10) scale(1,1)"><g><path fill="none" stroke="none"/><text fill="#000000" stroke="none" font-family="Arial" font-size="13px" font-style="normal" font-weight="normal" text-decoration="none" x="304" y="239">hợp lệ</text></g></g><g transform="translate(-54.82275390625,-10) scale(1,1)"><path fill="none" stroke="#000000" d="M 318 187 L 424 187" stroke-miterlimit="10"/></g><g transform="translate(-54.82275390625,-10) scale(1,1)"><path fill="none" stroke="#000000" d="M 413.83732514237585 191.209517756016 L 424 187 L 413.83732514237585 182.790482243984" stroke-miterlimit="10"/></g><g transform="translate(-54.82275390625,-10) scale(1,1)"><g><path fill="none" stroke="none"/><text fill="#000000" stroke="none" font-family="Arial" font-size="13px" font-style="normal" font-weight="normal" text-decoration="none" x="334" y="179">không hợp lệ</text></g></g><g transform="translate(-54.82275390625,-10) scale(1,1)"><path fill="#C0C0C0" stroke="none" d="M 95 440.5 C 95 435.2532944 99.2532944 431 104.5 431 C 109.7467056 431 114 435.2532944 114 440.5 C 114 445.7467056 109.7467056 450 104.5 450 C 99.2532944 450 95 445.7467056 95 440.5 Z" opacity="0.2"/></g><g transform="translate(-54.82275390625,-10) scale(1,1)"><path fill="#000000" stroke="none" d="M 88 433.5 C 88 428.2532944 92.2532944 424 97.5 424 C 102.7467056 424 107 428.2532944 107 433.5 C 107 438.7467056 102.7467056 443 97.5 443 C 92.2532944 443 88 438.7467056 88 433.5 Z"/></g><g transform="translate(-54.82275390625,-10) scale(1,1)"><path fill="#C0C0C0" stroke="none" d="M 145 479 L 238.01904296875 479 Q 248.01904296875 479 248.01904296875 489 L 248.01904296875 509 Q 248.01904296875 519 238.01904296875 519 L 145 519 Q 135 519 135 509 L 135 489 Q 135 479 145 479 Z" opacity="0.2"/></g><g transform="translate(-54.82275390625,-10) scale(1,1)"><path fill="#ffffff" stroke="none" d="M 138 472 L 231.01904296875 472 Q 241.01904296875 472 241.01904296875 482 L 241.01904296875 502 Q 241.01904296875 512 231.01904296875 512 L 138 512 Q 128 512 128 502 L 128 482 Q 128 472 138 472 Z"/></g><g transform="translate(-54.82275390625,-10) scale(1,1)"><path fill="none" stroke="#000000" d="M 138 472 L 231.01904296875 472 Q 241.01904296875 472 241.01904296875 482 L 241.01904296875 502 Q 241.01904296875 512 231.01904296875 512 L 138 512 Q 128 512 128 502 L 128 482 Q 128 472 138 472 Z" stroke-miterlimit="10"/></g><g transform="translate(-54.82275390625,-10) scale(1,1)"><g><path fill="none" stroke="none"/><text fill="#000000" stroke="none" font-family="Arial" font-size="13px" font-style="normal" font-weight="bold" text-decoration="none" x="136.070556640625" y="491.5">Nhấp button sửa</text></g></g><g transform="translate(-54.82275390625,-10) scale(1,1)"><path fill="#C0C0C0" stroke="none" d="M 321 479 L 463.83544921875 479 Q 473.83544921875 479 473.83544921875 489 L 473.83544921875 509 Q 473.83544921875 519 463.83544921875 519 L 321 519 Q 311 519 311 509 L 311 489 Q 311 479 321 479 Z" opacity="0.2"/></g><g transform="translate(-54.82275390625,-10) scale(1,1)"><path fill="#ffffff" stroke="none" d="M 314 472 L 456.83544921875 472 Q 466.83544921875 472 466.83544921875 482 L 466.83544921875 502 Q 466.83544921875 512 456.83544921875 512 L 314 512 Q 304 512 304 502 L 304 482 Q 304 472 314 472 Z"/></g><g transform="translate(-54.82275390625,-10) scale(1,1)"><path fill="none" stroke="#000000" d="M 314 472 L 456.83544921875 472 Q 466.83544921875 472 466.83544921875 482 L 466.83544921875 502 Q 466.83544921875 512 456.83544921875 512 L 314 512 Q 304 512 304 502 L 304 482 Q 304 472 314 472 Z" stroke-miterlimit="10"/></g><g transform="translate(-54.82275390625,-10) scale(1,1)"><g><path fill="none" stroke="none"/><text fill="#000000" stroke="none" font-family="Arial" font-size="13px" font-style="normal" font-weight="bold" text-decoration="none" x="314.946044921875" y="491.5">Sửa thông tin trong form</text></g></g><g transform="translate(-54.82275390625,-10) scale(1,1)"><path fill="#C0C0C0" stroke="none" d="M 423 600.5 L 434.5 591 L 445 600.5 L 434.5 609 L 423 600.5" opacity="0.2"/></g><g transform="translate(-54.82275390625,-10) scale(1,1)"><path fill="#ffffff" stroke="none" d="M 416 593 L 427 584 L 438 593 L 427 602 L 416 593"/></g><g transform="translate(-54.82275390625,-10) scale(1,1)"><path fill="none" stroke="#000000" d="M 416 593 L 427 584 L 438 593 L 427 602 L 416 593 L 416 593" stroke-miterlimit="10"/></g><g transform="translate(-54.82275390625,-10) scale(1,1)"><path fill="#C0C0C0" stroke="none" d="M 553 583 L 667.63916015625 583 Q 677.63916015625 583 677.63916015625 593 L 677.63916015625 613 Q 677.63916015625 623 667.63916015625 623 L 553 623 Q 543 623 543 613 L 543 593 Q 543 583 553 583 Z" opacity="0.2"/></g><g transform="translate(-54.82275390625,-10) scale(1,1)"><path fill="#ffffff" stroke="none" d="M 546 576 L 660.63916015625 576 Q 670.63916015625 576 670.63916015625 586 L 670.63916015625 606 Q 670.63916015625 616 660.63916015625 616 L 546 616 Q 536 616 536 606 L 536 586 Q 536 576 546 576 Z"/></g><g transform="translate(-54.82275390625,-10) scale(1,1)"><path fill="none" stroke="#000000" d="M 546 576 L 660.63916015625 576 Q 670.63916015625 576 670.63916015625 586 L 670.63916015625 606 Q 670.63916015625 616 660.63916015625 616 L 546 616 Q 536 616 536 606 L 536 586 Q 536 576 546 576 Z" stroke-miterlimit="10"/></g><g transform="translate(-54.82275390625,-10) scale(1,1)"><g><path fill="none" stroke="none"/><text fill="#000000" stroke="none" font-family="Arial" font-size="13px" font-style="normal" font-weight="bold" text-decoration="none" x="545.492431640625" y="595.5">Popup thông báo lỗi</text></g></g><g transform="translate(-54.82275390625,-10) scale(1,1)"><path fill="#C0C0C0" stroke="none" d="M 393 695 L 482.40087890625 695 Q 492.40087890625 695 492.40087890625 705 L 492.40087890625 725 Q 492.40087890625 735 482.40087890625 735 L 393 735 Q 383 735 383 725 L 383 705 Q 383 695 393 695 Z" opacity="0.2"/></g><g transform="translate(-54.82275390625,-10) scale(1,1)"><path fill="#ffffff" stroke="none" d="M 386 688 L 475.40087890625 688 Q 485.40087890625 688 485.40087890625 698 L 485.40087890625 718 Q 485.40087890625 728 475.40087890625 728 L 386 728 Q 376 728 376 718 L 376 698 Q 376 688 386 688 Z"/></g><g transform="translate(-54.82275390625,-10) scale(1,1)"><path fill="none" stroke="#000000" d="M 386 688 L 475.40087890625 688 Q 485.40087890625 688 485.40087890625 698 L 485.40087890625 718 Q 485.40087890625 728 475.40087890625 728 L 386 728 Q 376 728 376 718 L 376 698 Q 376 688 386 688 Z" stroke-miterlimit="10"/></g><g transform="translate(-54.82275390625,-10) scale(1,1)"><g><path fill="none" stroke="none"/><text fill="#000000" stroke="none" font-family="Arial" font-size="13px" font-style="normal" font-weight="bold" text-decoration="none" x="383.71826171875" y="707.5">Popup xác nhận</text></g></g><g transform="translate(-54.82275390625,-10) scale(1,1)"><path fill="none" stroke="#000000" d="M 107 433 L 152 433 L 152 472" stroke-miterlimit="10"/></g><g transform="translate(-54.82275390625,-10) scale(1,1)"><path fill="none" stroke="#000000" d="M 147.790482243984 461.83732514237585 L 152 472 L 156.209517756016 461.83732514237585" stroke-miterlimit="10"/></g><g transform="translate(-54.82275390625,-10) scale(1,1)"><path fill="none" stroke="#000000" d="M 425 512 L 425 584" stroke-miterlimit="10"/></g><g transform="translate(-54.82275390625,-10) scale(1,1)"><path fill="none" stroke="#000000" d="M 420.790482243984 573.8373251423759 L 425 584 L 429.209517756016 573.8373251423759" stroke-miterlimit="10"/></g><g transform="translate(-54.82275390625,-10) scale(1,1)"><path fill="none" stroke="#000000" d="M 544 576 L 544 488 L 467 488" stroke-miterlimit="10"/></g><g transform="translate(-54.82275390625,-10) scale(1,1)"><path fill="none" stroke="#000000" d="M 477.16267485762415 483.790482243984 L 467 488 L 477.16267485762415 492.209517756016" stroke-miterlimit="10"/></g><g transform="translate(-54.82275390625,-10) scale(1,1)"><path fill="none" stroke="#000000" d="M 427 603 L 429 687" stroke-miterlimit="10"/></g><g transform="translate(-54.82275390625,-10) scale(1,1)"><path fill="none" stroke="#000000" d="M 424.54977501791245 676.9404027114002 L 429 687 L 432.9664251961348 676.7400062785854" stroke-miterlimit="10"/></g><g transform="translate(-54.82275390625,-10) scale(1,1)"><g><path fill="none" stroke="none"/><text fill="#000000" stroke="none" font-family="Arial" font-size="13px" font-style="normal" font-weight="normal" text-decoration="none" x="424" y="651">hợp lệ</text></g></g><g transform="translate(-54.82275390625,-10) scale(1,1)"><path fill="none" stroke="#000000" d="M 439 593 L 535 595" stroke-miterlimit="10"/></g><g transform="translate(-54.82275390625,-10) scale(1,1)"><path fill="none" stroke="#000000" d="M 524.7518506052802 598.9969280683424 L 535 595 L 524.927209127341 590.5797190094205" stroke-miterlimit="10"/></g><g transform="translate(-54.82275390625,-10) scale(1,1)"><g><path fill="none" stroke="none"/><text fill="#000000" stroke="none" font-family="Arial" font-size="13px" font-style="normal" font-weight="normal" text-decoration="none" x="450" y="586">không hợp lệ</text></g></g><g transform="translate(-54.82275390625,-10) scale(1,1)"><path fill="none" stroke="#000000" d="M 242 492 L 303 492" stroke-miterlimit="10"/></g><g transform="translate(-54.82275390625,-10) scale(1,1)"><path fill="none" stroke="#000000" d="M 292.83732514237585 496.209517756016 L 303 492 L 292.83732514237585 487.790482243984" stroke-miterlimit="10"/></g></g></svg>